PathFileType	4	(X/Y/Z)	S01_0002_Gait_markers.trc
DataRate	CameraRate	NumFrames	NumMarkers	Units	OrigDataRate	OrigDataStartFrame	OrigNumFrames
250.000000	250.000000	4	54	mm	250.000000	206	330
Frame#	Time	HEAD_ANT			R_HEAD			L_HEAD			C7			R_BACK			L_BACK			STERNUM			R_ACROMION			R_HUM_PROX			R_HUM_ANT			R_HUM_POST			R_ELBOW_LAT			R_ELBOW_MED			R_FOREARM			R_WIRST_LAT			R_WRITS_MED			R_HAND			L_ACROMION			L_HUM_PROX			L_HUM_ANT			L_HUM_POST			L_ELBOW_LAT			L_ELBOW_MED			L_FOREARM			L_WRIST_LAT			L_WIRST_MED			L_HAND			R_ILIAC			SACRUM			L_ILIAC			R_GTROCH			R_THIGH__1			R_THIGH_2			R_THIGH_3			R_THIGH_4			R_SHANK_1			R_SHANK_2			R_SHANK_3			R_SHANK_4			R_HEEL			R_FOOT_LAT			R_FOOT_MED			L_GTROCH			L_THIGH_1			L_THIGH_2			L_THIGH_3			L_THIGH_4			L_SHANK_1			L_SHANK_2			L_SHANK_3			L_SHANK_4			L_HEEL			L_FOOT_LAT			L_FOOT_MED			
		X1	Y1	Z1	X2	Y2	Z2	X3	Y3	Z3	X4	Y4	Z4	X5	Y5	Z5	X6	Y6	Z6	X7	Y7	Z7	X8	Y8	Z8	X9	Y9	Z9	X10	Y10	Z10	X11	Y11	Z11	X12	Y12	Z12	X13	Y13	Z13	X14	Y14	Z14	X15	Y15	Z15	X16	Y16	Z16	X17	Y17	Z17	X18	Y18	Z18	X19	Y19	Z19	X20	Y20	Z20	X21	Y21	Z21	X22	Y22	Z22	X23	Y23	Z23	X24	Y24	Z24	X25	Y25	Z25	X26	Y26	Z26	X27	Y27	Z27	X28	Y28	Z28	X29	Y29	Z29	X30	Y30	Z30	X31	Y31	Z31	X32	Y32	Z32	X33	Y33	Z33	X34	Y34	Z34	X35	Y35	Z35	X36	Y36	Z36	X37	Y37	Z37	X38	Y38	Z38	X39	Y39	Z39	X40	Y40	Z40	X41	Y41	Z41	X42	Y42	Z42	X43	Y43	Z43	X44	Y44	Z44	X45	Y45	Z45	X46	Y46	Z46	X47	Y47	Z47	X48	Y48	Z48	X49	Y49	Z49	X50	Y50	Z50	X51	Y51	Z51	X52	Y52	Z52	X53	Y53	Z53	X54	Y54	Z54	

207	0.8240000000000001	1344.654174804688	1739.624877929688	-367.1050109863277	1285.99658203125	1693.248413085938	-285.1085205078121	1286.69482421875	1684.84423828125	-432.9900207519527	1151.459716796875	1516.569213867188	-349.5645141601559	1085.373291015625	1321.091186523438	-272.8143920898435	1083.618774414062	1319.015380859375	-413.8138122558591	1335.995727539062	1357.524536132812	-349.5793151855466	1234.479858398438	1472.474609375	-177.6107330322262	1207.016235351562	1315.042602539062	-80.49142456054658	1268.847412109375	1229.334716796875	-82.21684265136692	1149.663208007812	1231.79248046875	-59.7701110839841	1196.577270507812	1125.178344726562	-57.20895767211889	1170.422119140625	1118.398193359375	-133.5485687255857	1301.909423828125	943.4412841796875	-64.08986663818338	1337.188232421875	877.9083251953125	-106.8719711303709	1275.488037109375	854.4642333984375	-58.42951583862286	1348.218505859375	790.8836669921875	-51.04783630371076	1231.665771484375	1469.113525390625	-517.8955078124997	1201.903076171875	1299.028076171875	-606.2857666015622	1259.204956054688	1214.958740234375	-603.4584960937498	1138.550415039062	1224.446166992188	-629.051330566406	1190.154418945312	1114.884521484375	-629.7034912109373	1134.642822265625	1116.692504882813	-571.6413574218748	1275.679321289062	931.6196899414064	-620.4222412109373	1300.941650390625	866.4387817382814	-569.5072631835935	1254.774291992188	852.9927368164064	-632.2252807617185	1321.256225585938	785.1213989257814	-619.627746582031	1228.413940429688	1063.623291015625	-168.4179687499998	1106.596557617188	1036.383056640625	-340.7677917480466	1228.17578125	1062.722534179688	-514.8204956054685	1179.289428710938	914.67041015625	-156.4074554443357	1218.960083007812	637.5811157226562	-166.0581207275389	1275.075561523438	653.8164672851562	-157.2123107910155	1280.818481445312	548.14501953125	-179.6899108886718	1217.567749023438	556.8910522460938	-179.0883026123046	1094.2900390625	404.7395629882813	-164.0027923583984	1116.1142578125	350.5440673828126	-178.1675567626952	1050.86767578125	295.9163513183594	-194.4378662109374	1012.655578613281	346.2392272949219	-183.2648315429687	837.1332397460938	248.6918945312501	-266.4902648925781	896.359619140625	102.8486785888672	-175.7292785644531	941.093505859375	66.12865447998053	-260.6513366699219	1208.232299804688	953.5086669921876	-521.3065795898435	1357.740234375	682.5571289062501	-495.9791870117186	1303.076416015625	689.1867065429689	-517.5277099609374	1307.651611328125	587.4312744140626	-482.9378662109374	1368.378295898438	604.6974487304689	-469.3145141601561	1345.9755859375	325.201141357422	-461.9499206542968	1288.813232421875	306.0870666503907	-467.3742675781249	1279.867431640625	221.4724426269532	-450.2807922363281	1342.689453125	224.5879974365235	-435.8657226562499	1223.221435546875	40.45757675170907	-375.3322143554688	1399.957763671875	20.74192237854014	-444.8116760253906	1435.407958984375	26.99785804748543	-337.0745544433594	
208	0.8280000000000001	1350.247436523438	1740.642211914062	-367.4342651367184	1291.5400390625	1694.195678710938	-285.3058776855465	1292.239379882812	1685.783081054688	-433.2556152343746	1157.017333984375	1517.635131835938	-350.0604248046872	1090.697265625	1321.848754882812	-273.8494567871091	1089.308471679688	1319.9384765625	-414.3513488769528	1341.454467773438	1358.53955078125	-349.7779846191403	1239.559326171875	1473.419921875	-177.7236328124997	1212.144409179688	1316.12646484375	-80.83560180664033	1273.826049804688	1230.508422851562	-82.2842941284177	1154.790161132812	1232.802001953125	-60.02889633178683	1201.15185546875	1126.283569335938	-57.3224601745603	1173.945922851562	1119.88671875	-133.5783081054685	1305.902221679688	944.1824340820312	-63.73893356323221	1340.888671875	878.4415283203125	-106.2655792236326	1279.171752929688	855.4011840820312	-57.77416229248028	1351.534301757812	791.3831787109375	-50.16741943359357	1237.540771484375	1469.953125	-518.3105468749997	1208.026245117188	1300.033569335938	-606.4767456054684	1265.604125976562	1216.06494140625	-603.6708374023435	1144.841918945312	1225.236083984375	-629.6635131835935	1196.79150390625	1116.054443359375	-630.0448608398435	1141.036987304688	1117.4794921875	-572.4868164062498	1283.165283203125	932.9918212890626	-620.4457397460935	1308.488647460938	867.9385375976564	-569.3114624023435	1262.306640625	854.2609252929689	-632.3121948242185	1329.383056640625	786.8077392578126	-619.6862792968748	1233.846069335938	1064.701049804688	-168.5983886718748	1112.095703125	1037.443237304688	-340.9366455078123	1233.385864257812	1063.724609375	-515.0939941406248	1185.305786132812	915.7725219726562	-156.7735290527342	1227.844116210938	638.6541748046875	-166.358688354492	1284.173950195312	655.5643310546875	-156.4219818115233	1290.424072265625	549.6145629882812	-180.0632324218749	1226.736206054688	557.6555786132812	-179.3970336914061	1104.477294921875	405.2370605468751	-164.4891204833984	1126.798706054688	351.0803833007813	-178.4771423339843	1061.726196289062	295.9401855468751	-194.7078094482421	1023.30419921875	345.9403076171876	-183.6678924560546	847.9194946289062	247.0936431884766	-267.0486145019531	909.9091186523438	103.1270141601563	-174.9588165283203	954.9093627929688	66.09637451171881	-259.4109802246094	1212.899291992188	954.2150268554689	-521.5604248046873	1360.815185546875	682.2529907226564	-496.3717346191405	1306.244750976562	689.4069213867189	-517.7024536132811	1310.136352539062	587.5370483398439	-482.8504638671874	1370.7236328125	604.3026123046876	-469.634307861328	1347.45751953125	324.610321044922	-461.3142395019531	1289.399780273438	306.7430114746095	-468.1031494140624	1280.548583984375	221.5403289794923	-450.4273986816406	1343.493041992188	224.4983825683595	-435.8818969726562	1223.263671875	40.52085494995126	-375.3313293457031	1399.960327148438	20.67502212524424	-444.8739013671875	1435.457397460938	26.97776794433601	-337.0198364257812	
209	0.8320000000000001	1355.790283203125	1741.571533203125	-367.7023925781246	1297.09326171875	1695.133911132812	-285.5778503417965	1297.739868164062	1686.768432617188	-433.5790710449215	1162.538330078125	1518.7197265625	-350.2727661132809	1096.22314453125	1322.598876953125	-274.5575256347653	1094.949951171875	1320.8330078125	-414.6058349609372	1346.93896484375	1359.582397460938	-349.7425537109372	1244.691528320312	1474.477783203125	-177.88899230957	1217.020751953125	1317.273559570312	-81.2883300781247	1278.760620117188	1231.561645507812	-82.45362854003879	1159.656860351562	1233.870483398438	-60.38620376586886	1205.93212890625	1127.489013671875	-57.42908859252905	1179.43359375	1120.910888671875	-133.7196960449216	1309.94189453125	944.9431762695312	-63.37617874145486	1344.615600585938	878.9345092773438	-105.7688217163084	1283.002685546875	856.23681640625	-56.99355697631817	1354.87890625	791.9226684570312	-49.52764129638654	1243.273559570312	1471.19921875	-518.5291748046872	1214.168823242188	1301.061767578125	-606.8609619140622	1272.0380859375	1217.465087890625	-604.082824707031	1151.083984375	1226.180053710938	-630.0045166015623	1203.27099609375	1116.988647460938	-630.6781005859373	1147.218139648438	1118.53515625	-572.8223876953123	1290.51123046875	934.3980102539064	-620.480773925781	1315.758178710938	869.5979614257814	-568.6718749999998	1270.052124023438	855.5464477539064	-632.4249267578123	1337.477783203125	788.5104370117189	-619.6773681640623	1239.075927734375	1065.6953125	-168.8814392089841	1117.709106445312	1038.503173828125	-341.6072998046873	1238.837158203125	1064.836669921875	-515.3411865234373	1191.275024414062	916.75537109375	-157.0738067626951	1236.578979492188	639.4345092773438	-166.4523010253905	1292.692504882812	656.533935546875	-157.8200683593749	1300.216796875	551.515380859375	-180.693878173828	1236.218872070312	558.4287719726562	-179.568878173828	1114.828247070312	405.4942932128907	-165.0523681640624	1137.453125	351.4471130371094	-178.7881469726562	1072.817626953125	296.1328430175782	-194.6272735595703	1033.968994140625	345.9313964843751	-184.080581665039	858.9169921875	245.2560272216797	-267.3155212402343	923.5543212890625	103.1035079956055	-173.9988555908203	969.2111206054688	65.89341735839849	-257.8121032714844	1218.043212890625	954.7944946289064	-521.7891845703123	1363.998413085938	681.9128417968751	-496.5359497070311	1309.397705078125	689.4890747070314	-517.8627319335936	1312.540771484375	587.7238159179689	-483.2078247070311	1373.299560546875	604.1478881835939	-470.255889892578	1348.464111328125	324.4411010742189	-461.3269348144531	1290.369995117188	306.7669372558595	-468.2817382812499	1281.357543945312	221.1952514648439	-450.3096008300781	1344.236450195312	224.4253234863282	-435.8968200683593	1223.3017578125	40.63277053833016	-375.3112182617188	1399.972534179688	20.6064281463624	-444.9815368652344	1435.4765625	26.90211677551277	-337.049560546875	
210	0.836	1361.487426757812	1742.467163085938	-368.1554565429684	1302.735229492188	1696.290893554688	-285.7361145019527	1303.510009765625	1687.668334960938	-433.9099121093746	1168.010498046875	1519.680419921875	-350.6536254882809	1101.846801757812	1323.2548828125	-275.4632568359372	1100.466918945312	1321.762084960938	-415.0759582519528	1352.365478515625	1360.627075195312	-349.7407226562497	1249.815551757812	1475.632202148438	-178.224456787109	1221.772827148438	1318.293090820312	-81.56607818603486	1283.6728515625	1232.470703125	-82.65223693847629	1164.625	1235.056640625	-60.60371398925754	1210.645141601562	1128.52490234375	-57.51940536498999	1184.074462890625	1122.142700195312	-133.9389038085935	1314.01611328125	945.6632690429688	-62.91125488281229	1348.425537109375	879.4365234375	-105.1514205932615	1286.691040039062	857.234619140625	-56.40049362182598	1358.328857421875	792.5674438476562	-48.70932769775373	1248.592651367188	1472.1845703125	-518.7135009765622	1220.17578125	1302.133056640625	-607.2040405273434	1278.455810546875	1218.686645507813	-604.4506225585935	1157.277465820312	1226.963623046875	-630.5904541015623	1210.180541992188	1117.795288085938	-631.075988769531	1153.637329101562	1119.465942382813	-573.624816894531	1297.873657226562	935.6824951171876	-620.6760253906248	1323.259155273438	871.1318359375001	-568.6737060546873	1277.720947265625	856.6206665039064	-632.446105957031	1345.582275390625	790.2296142578126	-619.6701660156248	1244.776611328125	1066.6806640625	-169.0334014892576	1123.043090820312	1039.588256835938	-342.0029602050779	1244.541748046875	1065.96826171875	-515.6621093749998	1197.310302734375	917.7801513671875	-157.3943634033201	1245.509033203125	640.4622192382812	-166.9926300048827	1301.615600585938	657.9729614257812	-157.0090179443358	1309.786499023438	552.7954711914062	-181.0312347412108	1245.6533203125	559.3639526367188	-179.8190612792968	1124.984375	406.0307617187501	-165.4772338867187	1148.142578125	352.0609436035157	-178.843765258789	1084.160522460938	296.0606384277344	-194.4535369873046	1044.698608398438	345.9402465820313	-183.9644470214843	870.13037109375	243.2212371826172	-267.5391235351562	937.4678344726562	102.848373413086	-173.4678802490234	983.6311645507812	65.82987213134771	-256.9369506835938	1223.325317382812	955.4489135742189	-522.027404785156	1366.870483398438	681.7157592773439	-496.939239501953	1312.427001953125	689.7529907226564	-518.0308227539061	1314.518432617188	587.8833618164064	-483.2484130859374	1375.683227539062	603.7209472656251	-470.1104431152343	1349.695190429688	323.8670959472657	-460.4845886230468	1291.15234375	306.9132690429689	-468.9518127441406	1282.168579101562	221.2330474853517	-450.2712097167968	1344.83935546875	224.3248596191407	-435.8808288574218	1223.3408203125	40.7499313354493	-375.2561645507812	1399.970336914062	20.58397102355967	-445.0908203125	1435.508422851562	26.89621925354011	-337.0275268554688	
